<mxfile host="app.diagrams.net" modified="2024-05-15T05:26:53.490Z" agent="Mozilla/5.0 (Windows NT 10.0; Win64; x64) AppleWebKit/537.36 (KHTML, like Gecko) Chrome/124.0.0.0 Safari/537.36 Edg/124.0.0.0" etag="sEnQto8zAZ6MYpczgnkd" version="24.4.0" type="onedrive">
  <diagram name="ページ1" id="h2QdEWdDyE0UK1Bm8i2B">
    <mxGraphModel grid="1" page="1" gridSize="10" guides="1" tooltips="1" connect="1" arrows="1" fold="1" pageScale="1" pageWidth="827" pageHeight="1169" math="0" shadow="0">
      <root>
        <mxCell id="0" />
        <mxCell id="1" parent="0" />
        <mxCell id="1oIMW-t6v7dMZ5ZTIKhA-12" style="edgeStyle=orthogonalEdgeStyle;rounded=0;orthogonalLoop=1;jettySize=auto;html=1;exitX=0.5;exitY=1;exitDx=0;exitDy=0;entryX=0.5;entryY=0;entryDx=0;entryDy=0;" edge="1" parent="1" source="1oIMW-t6v7dMZ5ZTIKhA-1" target="1oIMW-t6v7dMZ5ZTIKhA-2">
          <mxGeometry relative="1" as="geometry" />
        </mxCell>
        <mxCell id="1oIMW-t6v7dMZ5ZTIKhA-1" value="inin()関数&lt;div&gt;開始&lt;/div&gt;" style="rounded=0;whiteSpace=wrap;html=1;" vertex="1" parent="1">
          <mxGeometry x="120" width="120" height="60" as="geometry" />
        </mxCell>
        <mxCell id="1oIMW-t6v7dMZ5ZTIKhA-13" style="edgeStyle=orthogonalEdgeStyle;rounded=0;orthogonalLoop=1;jettySize=auto;html=1;exitX=0.5;exitY=1;exitDx=0;exitDy=0;entryX=0.5;entryY=0;entryDx=0;entryDy=0;" edge="1" parent="1" source="1oIMW-t6v7dMZ5ZTIKhA-2" target="1oIMW-t6v7dMZ5ZTIKhA-3">
          <mxGeometry relative="1" as="geometry" />
        </mxCell>
        <mxCell id="1oIMW-t6v7dMZ5ZTIKhA-2" value="行列入力を促すメッセージの出力" style="rounded=1;whiteSpace=wrap;html=1;" vertex="1" parent="1">
          <mxGeometry x="120" y="90" width="120" height="60" as="geometry" />
        </mxCell>
        <mxCell id="1oIMW-t6v7dMZ5ZTIKhA-14" style="edgeStyle=orthogonalEdgeStyle;rounded=0;orthogonalLoop=1;jettySize=auto;html=1;exitX=0.5;exitY=1;exitDx=0;exitDy=0;" edge="1" parent="1" source="1oIMW-t6v7dMZ5ZTIKhA-3" target="1oIMW-t6v7dMZ5ZTIKhA-5">
          <mxGeometry relative="1" as="geometry" />
        </mxCell>
        <mxCell id="1oIMW-t6v7dMZ5ZTIKhA-3" value="A[0][0]の値を入力" style="rounded=1;whiteSpace=wrap;html=1;" vertex="1" parent="1">
          <mxGeometry x="120" y="180" width="120" height="60" as="geometry" />
        </mxCell>
        <mxCell id="1oIMW-t6v7dMZ5ZTIKhA-15" style="edgeStyle=orthogonalEdgeStyle;rounded=0;orthogonalLoop=1;jettySize=auto;html=1;exitX=0.5;exitY=1;exitDx=0;exitDy=0;entryX=0.5;entryY=0;entryDx=0;entryDy=0;" edge="1" parent="1" source="1oIMW-t6v7dMZ5ZTIKhA-5" target="1oIMW-t6v7dMZ5ZTIKhA-6">
          <mxGeometry relative="1" as="geometry" />
        </mxCell>
        <mxCell id="1oIMW-t6v7dMZ5ZTIKhA-5" value="A[0][1]の値を入力" style="rounded=1;whiteSpace=wrap;html=1;" vertex="1" parent="1">
          <mxGeometry x="120" y="270" width="120" height="60" as="geometry" />
        </mxCell>
        <mxCell id="1oIMW-t6v7dMZ5ZTIKhA-16" style="edgeStyle=orthogonalEdgeStyle;rounded=0;orthogonalLoop=1;jettySize=auto;html=1;exitX=0.5;exitY=1;exitDx=0;exitDy=0;entryX=0.5;entryY=0;entryDx=0;entryDy=0;" edge="1" parent="1" source="1oIMW-t6v7dMZ5ZTIKhA-6" target="1oIMW-t6v7dMZ5ZTIKhA-7">
          <mxGeometry relative="1" as="geometry" />
        </mxCell>
        <mxCell id="1oIMW-t6v7dMZ5ZTIKhA-6" value="A[1][0]の値を入力" style="rounded=1;whiteSpace=wrap;html=1;" vertex="1" parent="1">
          <mxGeometry x="120" y="360" width="120" height="60" as="geometry" />
        </mxCell>
        <mxCell id="1oIMW-t6v7dMZ5ZTIKhA-17" style="edgeStyle=orthogonalEdgeStyle;rounded=0;orthogonalLoop=1;jettySize=auto;html=1;exitX=0.5;exitY=1;exitDx=0;exitDy=0;entryX=0.5;entryY=0;entryDx=0;entryDy=0;" edge="1" parent="1" source="1oIMW-t6v7dMZ5ZTIKhA-7" target="1oIMW-t6v7dMZ5ZTIKhA-8">
          <mxGeometry relative="1" as="geometry" />
        </mxCell>
        <mxCell id="1oIMW-t6v7dMZ5ZTIKhA-7" value="A[1][1]の値を入力" style="rounded=1;whiteSpace=wrap;html=1;" vertex="1" parent="1">
          <mxGeometry x="120" y="450" width="120" height="60" as="geometry" />
        </mxCell>
        <mxCell id="1oIMW-t6v7dMZ5ZTIKhA-20" style="edgeStyle=orthogonalEdgeStyle;rounded=0;orthogonalLoop=1;jettySize=auto;html=1;exitX=0.5;exitY=1;exitDx=0;exitDy=0;entryX=0.5;entryY=0;entryDx=0;entryDy=0;" edge="1" parent="1" source="1oIMW-t6v7dMZ5ZTIKhA-8" target="1oIMW-t6v7dMZ5ZTIKhA-10">
          <mxGeometry relative="1" as="geometry" />
        </mxCell>
        <mxCell id="1oIMW-t6v7dMZ5ZTIKhA-8" value="A[0][0],A[0][1]の出力" style="rounded=1;whiteSpace=wrap;html=1;" vertex="1" parent="1">
          <mxGeometry x="120" y="540" width="120" height="60" as="geometry" />
        </mxCell>
        <mxCell id="1oIMW-t6v7dMZ5ZTIKhA-19" style="edgeStyle=orthogonalEdgeStyle;rounded=0;orthogonalLoop=1;jettySize=auto;html=1;exitX=0.5;exitY=1;exitDx=0;exitDy=0;" edge="1" parent="1" source="1oIMW-t6v7dMZ5ZTIKhA-10" target="1oIMW-t6v7dMZ5ZTIKhA-11">
          <mxGeometry relative="1" as="geometry" />
        </mxCell>
        <mxCell id="1oIMW-t6v7dMZ5ZTIKhA-10" value="A[1][0],A[1&lt;span style=&quot;background-color: initial;&quot;&gt;][1]の出力&lt;/span&gt;" style="rounded=1;whiteSpace=wrap;html=1;" vertex="1" parent="1">
          <mxGeometry x="120" y="630" width="120" height="60" as="geometry" />
        </mxCell>
        <mxCell id="1oIMW-t6v7dMZ5ZTIKhA-11" value="終了" style="rounded=0;whiteSpace=wrap;html=1;" vertex="1" parent="1">
          <mxGeometry x="120" y="720" width="120" height="60" as="geometry" />
        </mxCell>
      </root>
    </mxGraphModel>
  </diagram>
</mxfile>
